HIERARCHY
ROOT joint_Root
{
	OFFSET 0.0 0.0 0.0
	CHANNELS 6 Xposition Yposition Zposition Zrotation Xrotation Yrotation 
	JOINT Hips
	{
		OFFSET -0.726466 93.3139 -2.00062
		CHANNELS 6 Xposition Yposition Zposition Zrotation Xrotation Yrotation 
		JOINT Spine
		{
			OFFSET 15.7357 0.0 0.0
			CHANNELS 6 Xposition Yposition Zposition Zrotation Xrotation Yrotation 
			JOINT Chest
			{
				OFFSET 8.98455 -0.406207 0.0
				CHANNELS 6 Xposition Yposition Zposition Zrotation Xrotation Yrotation 
				JOINT Neck
				{
					OFFSET 16.3773 0.0 0.0
					CHANNELS 6 Xposition Yposition Zposition Zrotation Xrotation Yrotation 
					JOINT Head
					{
						OFFSET 6.45672 0.0 0.0
						CHANNELS 6 Xposition Yposition Zposition Zrotation Xrotation Yrotation 
						End Site
						{
							OFFSET 0.0 0.0 0.0
						}
					}
				}
				JOINT Shoulder_L
				{
					OFFSET 12.9942 -0.242716 4.98039
					CHANNELS 6 Xposition Yposition Zposition Zrotation Xrotation Yrotation 
					JOINT UpperArm_L
					{
						OFFSET 5.34809 0.0 0.0
						CHANNELS 6 Xposition Yposition Zposition Zrotation Xrotation Yrotation 
						JOINT LowerArm_L
						{
							OFFSET 24.3286 1.87007e-05 0.0
							CHANNELS 6 Xposition Yposition Zposition Zrotation Xrotation Yrotation 
							JOINT Hand_L
							{
								OFFSET 22.2916 0.0 0.0
								CHANNELS 6 Xposition Yposition Zposition Zrotation Xrotation Yrotation 
								End Site
								{
									OFFSET 0.0 0.0 0.0
								}
							}
						}
					}
				}
				JOINT Shoulder_R
				{
					OFFSET 12.9945 -0.242716 -4.98039
					CHANNELS 6 Xposition Yposition Zposition Zrotation Xrotation Yrotation 
					JOINT UpperArm_R
					{
						OFFSET -5.34813 0.0 0.0
						CHANNELS 6 Xposition Yposition Zposition Zrotation Xrotation Yrotation 
						JOINT LowerArm_R
						{
							OFFSET -24.3289 0.000322201 0.0
							CHANNELS 6 Xposition Yposition Zposition Zrotation Xrotation Yrotation 
							JOINT Hand_R
							{
								OFFSET -22.2915 -0.000108084 0.0
								CHANNELS 6 Xposition Yposition Zposition Zrotation Xrotation Yrotation 
								End Site
								{
									OFFSET 0.0 0.0 0.0
								}
							}
						}
					}
				}
			}
		}
		JOINT UpperLeg_L
		{
			OFFSET -2.19248 -6.46944 0.0
			CHANNELS 6 Xposition Yposition Zposition Zrotation Xrotation Yrotation 
			JOINT LowerLeg_L
			{
				OFFSET 39.0811 0.0 -1.23785e-05
				CHANNELS 6 Xposition Yposition Zposition Zrotation Xrotation Yrotation 
				JOINT Foot_L
				{
					OFFSET 40.9854 0.0 -1.26872e-05
					CHANNELS 6 Xposition Yposition Zposition Zrotation Xrotation Yrotation 
					JOINT Toes_L
					{
						OFFSET 11.7543 0.0 0.0
						CHANNELS 6 Xposition Yposition Zposition Zrotation Xrotation Yrotation 
						End Site
						{
							OFFSET 0.0 0.0 0.0
						}
					}
				}
			}
		}
		JOINT UpperLeg_R
		{
			OFFSET -2.19251 6.46944 0.0
			CHANNELS 6 Xposition Yposition Zposition Zrotation Xrotation Yrotation 
			JOINT LowerLeg_R
			{
				OFFSET -39.0811 -0.00228153 -0.0401928
				CHANNELS 6 Xposition Yposition Zposition Zrotation Xrotation Yrotation 
				JOINT Foot_R
				{
					OFFSET -40.9854 0.0 0.0
					CHANNELS 6 Xposition Yposition Zposition Zrotation Xrotation Yrotation 
					JOINT Toes_R
					{
						OFFSET -11.7543 0.0 0.0
						CHANNELS 6 Xposition Yposition Zposition Zrotation Xrotation Yrotation 
						End Site
						{
							OFFSET 0.0 0.0 0.0
						}
					}
				}
			}
		}
	}
}
MOTION
Frames:	4
Frame Time:	0.0333333
0.000000 0.000000 0.000000 0.000000 0.000000 -0.000000 -0.534148 92.249000 -0.253289 88.147500 -1.073680 4.542600 15.735700 0.000005 -0.000001 82.146300 85.203700 -81.172500 8.984550 -0.406207 -0.000000 1.749470 -1.361130 1.966790 16.377300 -0.000001 -0.000001 1.761500 -2.518570 -0.408184 6.456720 -0.000001 -0.000000 5.848440 -2.748660 -1.759390 12.994200 -0.242716 4.980390 -90.121400 0.411988 -73.577600 5.348090 -0.000007 -0.000001 -67.580000 38.257500 -16.426300 24.328600 0.000019 0.000005 2.281220 5.160660 -23.884700 22.291600 -0.000001 0.000005 3.155270 5.473810 -5.512110 12.994500 -0.242716 -4.980390 88.374500 5.277290 -72.853400 -5.348130 -0.000001 -0.000004 -65.667000 41.034600 -15.704200 -24.328900 0.000322 -0.000009 2.157870 7.611820 -15.886200 -22.291500 -0.000108 -0.000004 9.376970 5.400840 -2.964610 -2.192480 -6.469440 -0.000000 -175.312000 -8.592180 -1.887050 39.081100 -0.000007 -0.000012 -0.110273 0.259819 22.997500 40.985400 -0.000006 -0.000013 0.000741 4.271250 -66.678100 11.754300 -0.000000 0.000003 -0.000047 -0.000540 -16.598500 -2.192510 6.469440 -0.000001 179.487000 14.097200 -179.306000 -39.081100 -0.002282 -0.040193 -0.057174 0.170386 19.547700 -40.985400 0.000008 0.000006 3.168860 8.577010 -66.134600 -11.754300 -0.000006 -0.000006 -0.008763 -0.094150 -20.407800
0.000000 0.000000 0.000000 0.000000 0.000000 -0.000000 -0.583405 92.240600 -0.289050 88.186300 -0.734581 4.644160 15.735700 0.000005 -0.000001 81.496600 85.181500 -80.485200 8.984550 -0.406207 -0.000000 1.779420 -1.476970 2.044110 16.377300 -0.000001 -0.000001 1.873490 -2.655140 -0.454121 6.456720 -0.000001 -0.000000 5.936480 -2.750720 -1.930260 12.994200 -0.242716 4.980390 -90.238400 0.810176 -73.602500 5.348090 -0.000007 -0.000001 -65.204500 36.386200 -18.262100 24.328600 0.000019 0.000005 2.623850 5.538090 -25.398000 22.291600 -0.000001 0.000005 2.662230 5.467380 -5.271050 12.994500 -0.242716 -4.980390 88.400000 5.168570 -72.773000 -5.348130 -0.000001 -0.000004 -65.881400 40.733100 -15.523700 -24.328900 0.000322 -0.000009 2.149970 7.658010 -15.740700 -22.291500 -0.000108 -0.000004 9.342420 5.398790 -2.898130 -2.192480 -6.469440 -0.000000 -175.292000 -8.548980 -1.900010 39.081100 -0.000007 -0.000012 -0.111293 0.261314 23.069100 40.985400 -0.000006 -0.000013 0.026555 4.538520 -66.650000 11.754300 -0.000000 0.000003 -0.000043 -0.000501 -16.597000 -2.192510 6.469440 -0.000001 179.443000 14.280000 -179.235000 -39.081100 -0.002282 -0.040193 -0.059858 0.177238 19.619500 -40.985400 0.000008 0.000006 3.083230 8.441720 -66.159300 -11.754300 -0.000006 -0.000006 -0.008459 -0.091737 -20.309200
0.000000 0.000000 0.000000 0.000000 0.000000 -0.000000 -0.644792 92.240400 -0.323720 88.223500 -0.393449 4.733150 15.735700 0.000005 -0.000001 81.666000 85.181600 -80.597400 8.984550 -0.406207 -0.000000 1.783970 -1.451720 2.157960 16.377300 -0.000001 -0.000001 2.025230 -2.761400 -0.591753 6.456720 -0.000001 -0.000000 6.066510 -2.931590 -2.069030 12.994200 -0.242716 4.980390 -90.337800 1.146310 -73.579000 5.348090 -0.000007 -0.000001 -62.432100 32.636500 -21.024900 24.328600 0.000019 0.000005 3.123520 5.966150 -27.697600 22.291600 -0.000001 0.000005 2.199920 5.461030 -5.038100 12.994500 -0.242716 -4.980390 88.422900 5.065230 -72.679900 -5.348130 -0.000001 -0.000004 -66.072300 40.392900 -15.244800 -24.328900 0.000322 -0.000009 2.146320 7.694130 -15.645600 -22.291500 -0.000108 -0.000004 9.355520 5.400300 -2.947100 -2.192480 -6.469440 -0.000000 -175.267000 -8.439450 -1.882460 39.081100 -0.000007 -0.000012 -0.110466 0.259360 23.070100 40.985400 -0.000006 -0.000013 0.043365 4.825200 -66.596900 11.754300 -0.000000 0.000003 -0.000046 -0.000522 -16.597800 -2.192510 6.469440 -0.000001 179.421000 14.532800 -179.161000 -39.081100 -0.002282 -0.040193 -0.059318 0.175309 19.662500 -40.985400 0.000008 0.000006 3.175230 8.313180 -66.201300 -11.754300 -0.000006 -0.000006 -0.008668 -0.093401 -20.377100
0.000000 0.000000 0.000000 0.000000 0.000000 -0.000000 -0.724906 92.235200 -0.384416 88.278500 0.068850 4.879040 15.735700 0.000005 -0.000001 81.773300 85.171700 -80.650700 8.984550 -0.406207 -0.000000 1.806840 -1.439300 2.266030 16.377300 -0.000001 -0.000001 2.239570 -2.841200 -0.843022 6.456720 -0.000001 -0.000000 6.191240 -3.167340 -2.062480 12.994200 -0.242716 4.980390 -90.341300 1.156440 -73.554100 5.348090 -0.000007 -0.000001 -60.133600 27.117300 -24.209100 24.328600 0.000019 0.000005 3.432990 5.705560 -31.109000 22.291600 -0.000001 0.000005 2.724810 5.463290 -5.121630 12.994500 -0.242716 -4.980390 88.428100 5.039460 -72.651500 -5.348130 -0.000001 -0.000004 -66.057300 40.278500 -14.980400 -24.328900 0.000322 -0.000009 2.147380 7.703760 -15.634400 -22.291500 -0.000108 -0.000004 9.307580 5.398030 -2.873470 -2.192480 -6.469440 -0.000000 -175.262000 -8.209980 -1.877940 39.081100 -0.000007 -0.000012 -0.110516 0.258861 23.119400 40.985400 -0.000006 -0.000013 0.037707 5.044600 -66.528500 11.754300 -0.000000 0.000003 -0.000040 -0.000464 -16.595600 -2.192510 6.469440 -0.000001 179.338000 14.885300 -179.024000 -39.081100 -0.002282 -0.040193 -0.063163 0.185736 19.695000 -40.985400 0.000008 0.000006 3.010470 8.267430 -66.193100 -11.754300 -0.000006 -0.000006 -0.008504 -0.092097 -20.323900
